<?xml version="1.0" encoding="UTF-8"?>
<svg width="300px" height="80px" viewBox="0 0 300 80" version="1.1" xmlns="http://www.w3.org/2000/svg" xmlns:xlink="http://www.w3.org/1999/xlink">
    <title>Cyware Logo</title>
    <g id="Cyware-Logo" stroke="none" stroke-width="1" fill="none" fill-rule="evenodd">
        <!-- Cyware Symbol -->
        <g id="Symbol" transform="translate(10.000000, 10.000000)">
            <!-- Top Segment -->
            <path d="M30,0C38.284,0 45.568,4.179 49.497,10.874C50.501,12.614 50.501,14.771 49.497,16.511C45.568,23.206 38.284,27.385 30,27.385C21.716,27.385 14.432,23.206 10.503,16.511C9.499,14.771 9.499,12.614 10.503,10.874C14.432,4.179 21.716,0 30,0Z" fill="#00A9B7"></path>
            
            <!-- Bottom Segment -->
            <path d="M50,58.615C50,66.899 45.821,74.183 39.126,78.112C37.386,79.116 35.229,79.116 33.489,78.112C26.794,74.183 22.615,66.899 22.615,58.615C22.615,50.331 26.794,43.047 33.489,39.118C35.229,38.114 37.386,38.114 39.126,39.118C45.821,43.047 50,50.331 50,58.615Z" fill="#00A9B7"></path>
            
            <!-- Right Segment -->
            <path d="M66.154,30C66.154,38.284 61.975,45.568 55.28,49.497C53.54,50.501 51.383,50.501 49.643,49.497C42.948,45.568 38.769,38.284 38.769,30C38.769,21.716 42.948,14.432 49.643,10.503C51.383,9.499 53.54,9.499 55.28,10.503C61.975,14.432 66.154,21.716 66.154,30Z" fill="#0A2240"></path>
            
            <!-- Left Segment -->
            <path d="M10,34C10,25.716 14.179,18.432 20.874,14.503C22.614,13.499 24.771,13.499 26.511,14.503C33.206,18.432 37.385,25.716 37.385,34C37.385,42.284 33.206,49.568 26.511,53.497C24.771,54.501 22.614,54.501 20.874,53.497C14.179,49.568 10,42.284 10,34Z" fill="#0A2240"></path>
            
            <!-- Top-Right Segment -->
            <path d="M36,6C36,-2.284 40.179,-9.568 46.874,-13.497C48.614,-14.501 50.771,-14.501 52.511,-13.497C59.206,-9.568 63.385,-2.284 63.385,6C63.385,14.284 59.206,21.568 52.511,25.497C50.771,26.501 48.614,26.501 46.874,25.497C40.179,21.568 36,14.284 36,6Z" fill="#0A2240"></path>
            
            <!-- Bottom-Left Segment -->
            <path d="M6,58C6,49.716 10.179,42.432 16.874,38.503C18.614,37.499 20.771,37.499 22.511,38.503C29.206,42.432 33.385,49.716 33.385,58C33.385,66.284 29.206,73.568 22.511,77.497C20.771,78.501 18.614,78.501 16.874,77.497C10.179,73.568 6,66.284 6,58Z" fill="#0A2240"></path>
        </g>
        
        <!-- Cyware Text -->
        <g id="Text" transform="translate(90.000000, 30.000000)" fill="#00A9B7">
            <!-- C -->
            <path d="M10,20.5C10,9.5 18.5,1 29.5,1C36.5,1 42.5,4.5 45.5,9.5L39,13.5C37.5,10.5 33.5,8 29.5,8C22.5,8 17,13.5 17,20.5C17,27.5 22.5,33 29.5,33C33.5,33 37.5,30.5 39,27.5L45.5,31.5C42.5,36.5 36.5,40 29.5,40C18.5,40 10,31.5 10,20.5Z"></path>
            
            <!-- Y -->
            <path d="M50,2H57V20.5H75.5V2H82.5V40H75.5V27H57V40H50V2Z"></path>
            
            <!-- W -->
            <path d="M107,26L97,2H89.5L106,40H108L124.5,2H117L107,26Z"></path>
            
            <!-- A -->
            <path d="M136,9H125V2H154V9H143V40H136V9Z"></path>
            
            <!-- R -->
            <path d="M157,2H181.5C187.5,2 192,6.5 192,12.5C192,16.5 189.5,19.5 186,21C190.5,22 194,25.5 194,30.5C194,36.5 189,40 182.5,40H157V2ZM179.5,17.5C183,17.5 185,15.5 185,13C185,10.5 183,8.5 179.5,8.5H164V17.5H179.5ZM181,33.5C184.5,33.5 187,31.5 187,28.5C187,25.5 184.5,23.5 181,23.5H164V33.5H181Z"></path>
            
            <!-- E -->
            <path d="M196,2H203V23C203,30 207.5,33.5 213.5,33.5C219.5,33.5 224,30 224,23V2H231V23C231,33.5 223.5,40.5 213.5,40.5C203.5,40.5 196,33.5 196,23V2Z"></path>
        </g>
    </g>
</svg>
